<svg width="238" height="250" viewBox="0 0 238 250" fill="none" xmlns="http://www.w3.org/2000/svg">
<path d="M125 0C132.159 0 139.176 0.603124 146.006 1.75879C145.897 4.16604 146.602 6.61612 148.191 8.64258L208.124 86.0498H208.437V147.62C208.02 150.662 209.061 153.913 211.454 156.325L232.368 177.408C233.753 178.804 235.429 179.723 237.197 180.166C216.818 221.535 174.234 250 125 250C55.9644 250 0 194.036 0 125C0 55.9644 55.9644 0 125 0ZM119.578 12.6279C117.393 12.6279 115.208 13.4675 113.439 14.8311C108.861 18.3973 108.029 25.0054 111.566 29.5156V29.6201L166.816 100.944V163.772L190.644 187.897C194.701 191.988 201.361 191.988 205.419 187.897C209.477 183.807 209.477 177.094 205.419 173.003L187.627 155.172V93.707L128.006 16.7188C126.029 14.0966 122.908 12.628 119.578 12.6279Z" fill="#151519"/>
</svg>
